# xmcd
#
# Track frame offsets:
#	150
#	9151
#	35566
#	41342
#	59969
#	67844
#	88884
#	95860
#	116880
#	127934
#	150225
#
# Disc length: 2103 seconds
#
# Revision: 1
# Processed by: cddbd v1.5.1PL0 Copyright (c) Steve Scherf et al.
# Submitted via: CDex 1.50Beta5
#
DISCID=8d08350b
DTITLE=I've FC - TRUSH VOX 3
DYEAR=1900
DGENRE=
TTITLE0=scene01
TTITLE1=華月(arrange)/transposition
TTITLE2=scene02
TTITLE3=紫季伊冬那/Last regrets〜a man's pain〜
TTITLE4=scene03
TTITLE5=H☆(arrange)/夢の新世界へ行ってみたいと思いませんか?ふふっふ〜
TTITLE6=scene04
TTITLE7=こずえ/Color of happiness(DOPE&POP STYLE)
TTITLE8=scene05
TTITLE9=KOTOKO/prime-rock_T Mix-
TTITLE10=scene06
EXTD=
EXTT0=
EXTT1=
EXTT2=
EXTT3=
EXTT4=
EXTT5=
EXTT6=
EXTT7=
EXTT8=
EXTT9=
EXTT10=
PLAYORDER=
